<svg width="32" height="32" viewBox="0 0 32 32" fill="none" xmlns="http://www.w3.org/2000/svg">
<rect width="32" height="32" fill="white"/>
<path d="M28.0735 27.3214L28.145 27.2507L28.0739 27.1796L19.9665 19.0712C21.3698 17.4613 22.2286 15.3639 22.2286 13.0643C22.2286 8.01199 18.1177 3.9 13.0643 3.9C8.0109 3.9 3.9 8.01199 3.9 13.0643C3.9 18.1188 8.01092 22.2286 13.0643 22.2286C15.3639 22.2286 17.4612 21.3719 19.0712 19.9666L27.1743 28.0707L27.2446 28.141L27.3153 28.0711L28.0735 27.3214ZM5.16532 13.0643C5.16532 8.71001 8.70789 5.16639 13.0632 5.16639C17.4186 5.16639 20.9612 8.71001 20.9612 13.0643C20.9612 17.4207 17.4186 20.9622 13.0632 20.9622C8.70788 20.9622 5.16532 17.4207 5.16532 13.0643Z" fill="black" stroke="black" stroke-width="0.2"/>
</svg>
