<svg xmlns="http://www.w3.org/2000/svg" width="32" height="32" fill="none"><path fill="#fff" d="M0 0h32v32H0z"/><path fill="#000" stroke="#000" d="M16.475 16.242a6.127 6.127 0 0 1-6.121-6.121A6.127 6.127 0 0 1 16.474 4a6.127 6.127 0 0 1 6.122 6.121 6.13 6.13 0 0 1-6.121 6.121Zm0-11.759a5.643 5.643 0 0 0-5.638 5.638 5.645 5.645 0 0 0 5.638 5.638 5.643 5.643 0 0 0 5.638-5.638 5.643 5.643 0 0 0-5.638-5.638ZM6.483 28c.081-5.444 4.53-9.847 9.992-9.847 5.461 0 9.91 4.406 9.991 9.847h.483c-.08-5.71-4.747-10.33-10.474-10.33S6.08 22.292 6 28z"/></svg>